<svg xmlns="http://www.w3.org/2000/svg" width="51.369" height="29.934" viewBox="0 0 51.369 29.934">
  <g id="Group_6" data-name="Group 6" transform="translate(-360 -150)">
    <path id="Path_2" data-name="Path 2" d="M36.043-130.617a6.967,6.967,0,0,0,4.236-6.457c0-4.533-3.93-7.826-12.358-7.826H21.649v29.934h7.145c8.428,0,12.926-3.036,12.926-8.253C41.72-126.769,39.624-129.334,36.043-130.617Zm-9.52-7.227c2.314,0,3.362.77,3.362,2.224s-1.048,2.224-3.362,2.224H21.649v-4.447Zm1.4,15.822H21.649v-4.7h6.272c2.271,0,3.406.813,3.406,2.352S30.192-122.022,27.921-122.022Z" transform="translate(369.649 294.9)" fill="rgba(201,2,2,0.85)"/>
    <path id="Path_1" data-name="Path 1" d="M23.473-114.966H11.8l12.572-16.763L12.4-144.9h10.99l9.835,10.862V-144.9h9.921v29.934H33.223v-7.4l-2.266-2.523Z" transform="translate(348.201 294.9)" fill="rgba(201,2,2,0.85)"/>
  </g>
</svg>
